<svg width="149" height="201" viewBox="0 0 149 201" fill="none" xmlns="http://www.w3.org/2000/svg">
<path d="M73.7894 162.066C73.7894 155.024 71.7652 148.133 67.9633 142.233C64.1613 136.333 58.7454 131.677 52.3744 128.832C46.0035 125.986 38.9521 125.075 32.0782 126.208C25.2043 127.341 18.8041 130.469 13.6564 135.213C8.50868 139.956 4.8353 146.11 3.08316 152.926C1.33102 159.742 1.57565 166.926 3.78728 173.604C5.99892 180.281 10.0822 186.165 15.5404 190.54C20.9986 194.914 23.3567 196.251 30.6723 198.398C37.8584 199.719 43.5285 198.142 47.6322 195.855C51.7358 193.569 54.9285 189.914 56.6662 185.515C58.4038 181.115 58.579 176.242 57.1618 171.726C55.7447 167.21 52.8229 163.331 48.8942 160.749C44.9656 158.168 40.2732 157.043 35.6166 157.568C30.96 158.092 26.6273 160.233 23.3567 163.626C20.0861 167.018 18.0801 171.452 17.6803 176.173C17.2806 180.893 18.913 185.847 21.5262 189.15" stroke="black" stroke-width="3" stroke-linecap="round"/>
<path d="M73.7894 162.066C73.7894 155.024 75.8496 148.133 79.7195 142.233C83.5893 136.333 89.1019 131.677 95.5867 128.831C102.071 125.986 109.249 125.075 116.245 126.208C123.242 127.341 129.756 130.469 134.996 135.213C140.236 139.956 143.975 146.11 145.758 152.926C147.542 159.742 147.293 166.926 145.041 173.604C142.79 180.281 138.634 186.165 133.078 190.54C127.523 194.914 125.123 196.251 117.676 198.398C110.362 199.719 104.591 198.142 100.414 195.855C96.2367 193.569 92.987 189.914 91.2183 185.515C89.4496 181.115 89.2713 176.242 90.7138 171.726C92.1563 167.21 95.1303 163.331 99.1291 160.749C103.128 158.168 107.904 157.043 112.644 157.568C117.384 158.092 121.794 160.233 125.123 163.626C128.452 167.018 130.493 171.452 130.9 176.173C131.307 180.893 129.646 185.847 126.986 189.15" stroke="black" stroke-width="3" stroke-linecap="round"/>
<path d="M14.76 77.6027C60.0487 75.1518 73.666 131.728 74.431 148.833C75.196 131.728 88.8132 75.1518 134.102 77.6027C129.512 64.5821 104.266 57.6889 89.7312 64.5821C90.7512 52.8381 89.1192 12.3466 74.431 2.54286C59.7427 12.3466 58.1107 52.8381 59.1307 64.5821C44.5955 57.6889 19.3501 64.5821 14.76 77.6027Z" stroke="black" stroke-width="3"/>
</svg>
