<svg width="889" height="74" viewBox="0 0 889 74" fill="none" xmlns="http://www.w3.org/2000/svg">
<path d="M704 36.9832L183 36.9832" stroke="black" stroke-width="3" stroke-linecap="round"/>
<path d="M835.633 12.9832C835.633 30.1668 819.711 35.8645 812.5 36.9832C819.711 38.1019 835.633 44.7997 835.633 61.9832C851.46 55.1695 863 47.9832 873 37.1476C861 25.9832 852.435 20.5545 835.633 12.9832Z" stroke="black" stroke-width="3" stroke-linecap="square" stroke-linejoin="round"/>
<path d="M724.633 24.9832C724.633 33.7503 732.711 36.4124 736.5 36.9832C732.711 37.554 724.633 41.2161 724.633 49.9832L704.5 36.9832L724.633 24.9832Z" stroke="black" stroke-width="3" stroke-linejoin="round"/>
<path d="M791.278 36.9243C795.069 36.8887 801.401 35.8881 804.593 34.4657C807.785 33.0433 811.22 30.1954 812.689 26.525C815.136 20.4078 814.296 13.9285 810.101 8.2801C802.017 -2.60545 778.918 0.668816 781.365 17.7433M781.365 17.7433C781.435 18.232 781.526 18.7321 781.639 19.2435M781.365 17.7433C781.41 18.2501 781.503 18.7517 781.639 19.2435M781.365 17.7433C781.356 17.6389 781.349 17.5344 781.344 17.4297M781.639 19.2435C781.666 19.3626 781.693 19.4824 781.722 19.6028M781.639 19.2435C783.331 25.3556 791.66 29.96 795.753 24.3526C798.645 20.3903 795.996 14.5389 789.724 15.1123M791.278 37.0252C795.069 37.0608 801.401 38.0614 804.593 39.4838C807.785 40.9062 811.22 43.7541 812.689 47.4245C815.136 53.5417 814.296 60.021 810.101 65.6694C802.017 76.555 778.918 73.2807 781.365 56.2062M781.365 56.2062C781.435 55.7175 781.526 55.2174 781.639 54.706M781.365 56.2062C781.41 55.6994 781.503 55.1978 781.639 54.706M781.365 56.2062C781.356 56.3106 781.349 56.4151 781.344 56.5198M781.639 54.706C781.666 54.5869 781.693 54.4671 781.722 54.3467M781.639 54.706C783.331 48.5939 791.66 43.9895 795.753 49.597C798.645 53.5593 795.996 59.4106 789.724 58.8372" stroke="black" stroke-width="3" stroke-linecap="square" stroke-linejoin="round"/>
<path d="M783 8.98322C769.305 29.4646 759.43 35.1918 741 36.9832C759.43 38.7746 769.305 44.5018 783 64.9832" stroke="black" stroke-width="3" stroke-linecap="square" stroke-linejoin="round"/>
<path d="M52.5623 12.9832C52.5623 30.1668 68.4846 35.8645 75.6957 36.9832C68.4846 38.1019 52.5623 44.7997 52.5623 61.9832C36.7355 55.1695 25.1957 47.9832 15.1957 37.1476C27.1957 25.9832 35.7609 20.5545 52.5623 12.9832Z" stroke="black" stroke-width="3" stroke-linecap="square" stroke-linejoin="round"/>
<path d="M163.562 24.9832C163.562 33.7503 155.484 36.4124 151.696 36.9832C155.484 37.554 163.562 41.2161 163.562 49.9832L183.696 36.9832L163.562 24.9832Z" stroke="black" stroke-width="3" stroke-linejoin="round"/>
<path d="M96.9173 36.9243C93.1265 36.8887 86.7949 35.8881 83.6029 34.4657C80.4108 33.0433 76.9752 30.1954 75.5071 26.525C73.0602 20.4078 73.8994 13.9285 78.0943 8.2801C86.1787 -2.60545 109.278 0.668816 106.83 17.7433M106.83 17.7433C106.76 18.232 106.669 18.7321 106.556 19.2435M106.83 17.7433C106.786 18.2501 106.693 18.7517 106.556 19.2435M106.83 17.7433C106.839 17.6389 106.847 17.5344 106.852 17.4297M106.556 19.2435C106.53 19.3626 106.503 19.4824 106.474 19.6028M106.556 19.2435C104.864 25.3556 96.5361 29.96 92.4429 24.3526C89.5505 20.3903 92.2 14.5389 98.4719 15.1123M96.9173 37.0252C93.1265 37.0608 86.7949 38.0614 83.6029 39.4838C80.4108 40.9062 76.9752 43.7541 75.5071 47.4245C73.0602 53.5417 73.8994 60.021 78.0943 65.6694C86.1787 76.555 109.278 73.2807 106.83 56.2062M106.83 56.2062C106.76 55.7175 106.669 55.2174 106.556 54.706M106.83 56.2062C106.786 55.6994 106.693 55.1978 106.556 54.706M106.83 56.2062C106.839 56.3106 106.847 56.4151 106.852 56.5198M106.556 54.706C106.53 54.5869 106.503 54.4671 106.474 54.3467M106.556 54.706C104.864 48.5939 96.5361 43.9895 92.4429 49.597C89.5505 53.5593 92.2 59.4106 98.4719 58.8372" stroke="black" stroke-width="3" stroke-linecap="square" stroke-linejoin="round"/>
<path d="M105.196 8.98322C118.891 29.4646 128.766 35.1918 147.196 36.9832C128.766 38.7746 118.891 44.5018 105.196 64.9832" stroke="black" stroke-width="3" stroke-linecap="square" stroke-linejoin="round"/>
</svg>
