<svg width="935" height="67" viewBox="0 0 935 67" fill="none" xmlns="http://www.w3.org/2000/svg">
<g filter="url(#filter0_d_4_118)">
<path d="M740.764 29.4899L193.007 29.4899" stroke="black" stroke-width="3" stroke-linecap="round"/>
<path d="M879.157 10.6282C879.157 24.1328 862.417 28.6107 854.836 29.4899C862.417 30.3691 879.157 35.6328 879.157 49.1375C895.797 43.7825 907.929 38.1348 918.443 29.619C905.826 20.8449 896.821 16.5784 879.157 10.6282Z" stroke="black" stroke-width="3" stroke-linecap="square" stroke-linejoin="round"/>
<path d="M762.452 20.059C762.452 26.9491 770.945 29.0413 774.928 29.4899C770.945 29.9384 762.452 32.8165 762.452 39.7066L741.285 29.4899L762.452 20.059Z" stroke="black" stroke-width="3" stroke-linejoin="round"/>
<path d="M832.523 29.4436C836.509 29.4156 843.166 28.6292 846.522 27.5113C849.878 26.3934 853.49 24.1553 855.033 21.2707C857.606 16.4632 856.723 11.3711 852.313 6.93197C843.814 -1.62304 819.528 0.950223 822.101 14.3691M822.101 14.3691C822.175 14.7532 822.271 15.1462 822.389 15.5481M822.101 14.3691C822.148 14.7674 822.246 15.1616 822.389 15.5481M822.101 14.3691C822.092 14.2871 822.084 14.205 822.079 14.1227M822.389 15.5481C822.417 15.6418 822.446 15.7359 822.476 15.8305M822.389 15.5481C824.168 20.3517 832.924 23.9703 837.228 19.5634C840.269 16.4494 837.483 11.8508 830.889 12.3014M832.523 29.5229C836.509 29.5508 843.166 30.3372 846.522 31.4551C849.878 32.573 853.49 34.8112 855.033 37.6957C857.606 42.5032 856.723 47.5954 852.313 52.0345C843.814 60.5895 819.528 58.0162 822.101 44.5973M822.101 44.5973C822.175 44.2132 822.271 43.8202 822.389 43.4183M822.101 44.5973C822.148 44.199 822.246 43.8048 822.389 43.4183M822.101 44.5973C822.092 44.6793 822.084 44.7615 822.079 44.8438M822.389 43.4183C822.417 43.3246 822.446 43.2305 822.476 43.1359M822.389 43.4183C824.168 38.6148 832.924 34.9961 837.228 39.4031C840.269 42.517 837.483 47.1157 830.889 46.665" stroke="black" stroke-width="3" stroke-linecap="square" stroke-linejoin="round"/>
<path d="M823.816 7.48454C809.418 23.581 799.035 28.082 779.659 29.4899C799.035 30.8977 809.418 35.3988 823.816 51.4952" stroke="black" stroke-width="3" stroke-linecap="square" stroke-linejoin="round"/>
<path d="M55.8736 10.6282C55.8736 24.1328 72.6135 28.6107 80.1949 29.4899C72.6135 30.3691 55.8736 35.6328 55.8736 49.1375C39.234 43.7825 27.1015 38.1348 16.5879 29.619C29.2042 20.8449 38.2093 16.5784 55.8736 10.6282Z" stroke="black" stroke-width="3" stroke-linecap="square" stroke-linejoin="round"/>
<path d="M172.569 20.059C172.569 26.9491 164.076 29.0413 160.093 29.4899C164.076 29.9384 172.569 32.8165 172.569 39.7066L193.736 29.4899L172.569 20.059Z" stroke="black" stroke-width="3" stroke-linejoin="round"/>
<path d="M102.507 29.4436C98.5217 29.4156 91.865 28.6292 88.509 27.5113C85.153 26.3934 81.541 24.1553 79.9974 21.2707C77.4249 16.4632 78.3073 11.3711 82.7176 6.93197C91.2171 -1.62304 115.502 0.950223 112.929 14.3691M112.929 14.3691C112.856 14.7532 112.76 15.1462 112.641 15.5481M112.929 14.3691C112.882 14.7674 112.784 15.1616 112.641 15.5481M112.929 14.3691C112.939 14.2871 112.946 14.205 112.952 14.1227M112.641 15.5481C112.614 15.6418 112.585 15.7359 112.555 15.8305M112.641 15.5481C110.862 20.3517 102.106 23.9703 97.803 19.5634C94.7621 16.4494 97.5477 11.8508 104.142 12.3014M102.507 29.5229C98.5217 29.5508 91.865 30.3372 88.509 31.4551C85.153 32.573 81.541 34.8112 79.9974 37.6957C77.4249 42.5032 78.3073 47.5954 82.7176 52.0345C91.2171 60.5895 115.502 58.0162 112.929 44.5973M112.929 44.5973C112.856 44.2132 112.76 43.8202 112.641 43.4183M112.929 44.5973C112.882 44.199 112.784 43.8048 112.641 43.4183M112.929 44.5973C112.939 44.6793 112.946 44.7615 112.952 44.8438M112.641 43.4183C112.614 43.3246 112.585 43.2305 112.555 43.1359M112.641 43.4183C110.862 38.6148 102.106 34.9961 97.803 39.4031C94.7621 42.517 97.5477 47.1157 104.142 46.665" stroke="black" stroke-width="3" stroke-linecap="square" stroke-linejoin="round"/>
<path d="M111.205 7.48454C125.603 23.581 135.986 28.082 155.362 29.4899C135.986 30.8977 125.603 35.3988 111.205 51.4952" stroke="black" stroke-width="3" stroke-linecap="square" stroke-linejoin="round"/>
</g>
<defs>
<filter id="filter0_d_4_118" x="11.0879" y="0.483215" width="912.855" height="66" filterUnits="userSpaceOnUse" color-interpolation-filters="sRGB">
<feFlood flood-opacity="0" result="BackgroundImageFix"/>
<feColorMatrix in="SourceAlpha" type="matrix" values="0 0 0 0 0 0 0 0 0 0 0 0 0 0 0 0 0 0 127 0" result="hardAlpha"/>
<feOffset dy="4"/>
<feGaussianBlur stdDeviation="2"/>
<feComposite in2="hardAlpha" operator="out"/>
<feColorMatrix type="matrix" values="0 0 0 0 0 0 0 0 0 0 0 0 0 0 0 0 0 0 0.25 0"/>
<feBlend mode="normal" in2="BackgroundImageFix" result="effect1_dropShadow_4_118"/>
<feBlend mode="normal" in="SourceGraphic" in2="effect1_dropShadow_4_118" result="shape"/>
</filter>
</defs>
</svg>
